<?xml version="1.0" standalone="no"?>
<!DOCTYPE svg PUBLIC "-//W3C//DTD SVG 1.1//EN" "http://www.w3.org/Graphics/SVG/1.1/DTD/svg11.dtd" >
<svg xmlns="http://www.w3.org/2000/svg">
<metadata>Generated by IcoMoon</metadata>
<defs>
<font id="adblock-browser" horiz-adv-x="1024">
<font-face units-per-em="1024" ascent="960" descent="-64" />
<missing-glyph horiz-adv-x="1024" />
<glyph unicode="&#x20;" horiz-adv-x="512" d="" />
<glyph unicode="&#xe900;" glyph-name="ghost-tabs-filled" d="M393.846 920.615c-220.554-3.938-397.785-181.169-393.846-401.723v-515.938c0-11.815 3.938-19.692 7.877-27.569 11.815-23.631 47.262-35.446 70.892-19.692l133.908 82.708 153.6-94.523c7.877-3.938 19.692-7.877 27.569-7.877s19.692 3.938 27.569 7.877l149.662 94.523 133.908-82.708c7.877-3.938 19.692-7.877 27.569-7.877 31.508 0 55.138 23.631 55.138 55.138v515.938c0 220.554-173.292 397.785-393.846 401.723zM283.569 522.831c-39.385 0-74.831 35.446-74.831 74.831s35.446 74.831 74.831 74.831c39.385 0 74.831-35.446 74.831-74.831 0-43.323-35.446-74.831-74.831-74.831zM504.123 522.831c-39.385 0-74.831 35.446-74.831 74.831s35.446 74.831 74.831 74.831c39.385 0 74.831-35.446 74.831-74.831 0-43.323-35.446-74.831-74.831-74.831zM571.077 97.477l-11.815-7.877 43.323-27.569c7.877-3.938 19.692-7.877 27.569-7.877 3.938 0 7.877 0 7.877 0l-66.954 43.323zM634.092 960c-35.446 0-66.954-3.938-98.462-15.754 47.262-11.815 90.585-35.446 129.969-63.015 165.415-15.754 291.446-153.6 291.446-326.892v-484.431l-114.215 70.892c0 0 0 0-3.938 0v-86.646l106.338-63.015c7.877-3.938 19.692-7.877 27.569-7.877 31.508 0 55.138 23.631 55.138 55.138v519.877c0 220.554-173.292 397.785-393.846 401.723z" />
<glyph unicode="&#xe901;" glyph-name="ghost-tabs" d="M393.846-64c-7.877 0-19.692 3.938-27.569 7.877l-153.6 94.523-133.908-82.708c-23.631-15.754-59.077-3.938-70.892 19.692v0 0c-3.938 7.877-7.877 15.754-7.877 27.569v515.938c-3.938 220.554 173.292 397.785 393.846 401.723 220.554-3.938 393.846-181.169 393.846-401.723v-515.938c0-31.508-23.631-55.138-55.138-55.138v0 0c-7.877 0-19.692 3.938-27.569 7.877l-133.908 82.708-149.662-94.523c-7.877-3.938-19.692-7.877-27.569-7.877zM212.677 113.231c7.877 0 19.692-3.938 27.569-7.877l153.6-94.523 153.6 94.523c15.754 11.815 39.385 11.815 55.138 0l114.215-70.892v484.431c0 181.169-141.785 326.892-322.954 326.892v0 0c-181.169 0-322.954-149.662-322.954-330.831v0 0-484.431l114.215 70.892c7.877 7.877 19.692 11.815 27.569 11.815zM358.4 597.662c0-41.328-33.503-74.831-74.831-74.831s-74.831 33.503-74.831 74.831c0 41.328 33.503 74.831 74.831 74.831s74.831-33.503 74.831-74.831zM578.954 597.662c0-41.328-33.503-74.831-74.831-74.831s-74.831 33.503-74.831 74.831c0 41.328 33.503 74.831 74.831 74.831s74.831-33.503 74.831-74.831zM571.077 97.477l-11.815-7.877 43.323-27.569c7.877-3.938 19.692-7.877 27.569-7.877 3.938 0 7.877 0 7.877 0l-66.954 43.323zM634.092 960c-35.446 0-66.954-3.938-98.462-15.754 47.262-11.815 90.585-35.446 129.969-63.015 165.415-15.754 291.446-153.6 291.446-326.892v-484.431l-114.215 70.892c0 0 0 0-3.938 0v-86.646l106.338-63.015c7.877-3.938 19.692-7.877 27.569-7.877 31.508 0 55.138 23.631 55.138 55.138v519.877c0 220.554-173.292 397.785-393.846 401.723z" />
<glyph unicode="&#xe902;" glyph-name="add" d="M512-64c-20.198 0-36.571 16.374-36.571 36.571v950.857c0 20.198 16.374 36.571 36.571 36.571s36.571-16.374 36.571-36.571v-950.857c0-20.198-16.374-36.571-36.571-36.571zM987.429 411.429h-950.857c-20.198 0-36.571 16.374-36.571 36.571s16.374 36.571 36.571 36.571h950.857c20.198 0 36.571-16.374 36.571-36.571s-16.374-36.571-36.571-36.571z" />
<glyph unicode="&#xe903;" glyph-name="back" horiz-adv-x="555" d="M499.2-64l55.467 56.747-443.733 455.253 443.733 455.253-55.467 56.747-499.2-512 499.2-512z" />
<glyph unicode="&#xe904;" glyph-name="bookmark" horiz-adv-x="788" d="M733.342 960h-681.354c-29-1.281-52.025-25.102-52.025-54.301 0-0.71 0.014-1.417 0.041-2.12l-0.003-912.834c-0.001-0.124-0.002-0.27-0.002-0.417 0-29.464 23.445-53.452 52.696-54.326l341.151 196.921 338.314-196.923c0.352-0.008 0.767-0.013 1.183-0.013 30.017 0 54.351 24.334 54.351 54.351 0 0.143-0.001 0.286-0.002 0.429v912.913s0 0 0 2.363c-0.223 29.847-24.471 53.957-54.349 53.957-0.001 0-0.001 0-0.002 0zM716.012 886.745v-849.92l-320.985 196.923-323.742-196.923v849.92z" />
<glyph unicode="&#xe905;" glyph-name="bookmark-filled" horiz-adv-x="788" d="M733.342 960h-681.354c-29-1.281-52.025-25.102-52.025-54.301 0-0.71 0.014-1.417 0.041-2.12l-0.003-912.834c-0.001-0.124-0.002-0.27-0.002-0.417 0-29.464 23.445-53.452 52.696-54.326l341.151 196.921 338.314-196.923c0.352-0.008 0.767-0.013 1.183-0.013 30.017 0 54.351 24.334 54.351 54.351 0 0.143-0.001 0.286-0.002 0.429v912.913s0 0 0 2.363c-0.223 29.847-24.471 53.957-54.349 53.957-0.001 0-0.001 0-0.002 0z" />
<glyph unicode="&#xe906;" glyph-name="check" horiz-adv-x="1309" d="M1302.761 823.905l-122.016 122.016c-6.386 8.735-16.596 14.345-28.117 14.345-7.793 0-14.986-2.567-20.781-6.901l-4.602-7.444-638.24-657.012-281.577 281.577c-13.256 11.996-30.92 19.337-50.299 19.337-9.938 0-19.426-1.931-28.108-5.438l0.504 0.18-122.016-131.402c-4.492-8.138-7.135-17.839-7.135-28.158s2.643-20.020 7.289-28.464l431.596-440.831c6.386-8.735 16.596-14.345 28.117-14.345 7.793 0 14.986 2.567 20.781 6.901l7.418 7.444 797.8 816.572c8.825 7.78 14.362 19.109 14.362 31.732 0 7.281-1.843 14.133-5.087 20.113z" />
<glyph unicode="&#xe907;" glyph-name="checkbox" d="M969.143-64h-914.286c-29.972 0.793-54.064 24.885-54.856 54.783l-0.002 914.36c0.793 29.972 24.885 54.064 54.783 54.856l914.36 0.002c29.972-0.793 54.064-24.885 54.856-54.783l0.002-914.36c-0.793-29.972-24.885-54.064-54.783-54.856zM73.143 9.143h877.714v877.714h-877.714v-877.714z" />
<glyph unicode="&#xe908;" glyph-name="cross" d="M987.429-64c-0.266-0.008-0.579-0.012-0.893-0.012-9.789 0-18.592 4.227-24.681 10.955l-950.883 950.886c-6.464 6.591-10.454 15.63-10.454 25.6s3.99 19.009 10.46 25.606c6.585 6.459 15.624 10.448 25.594 10.448s19.009-3.99 25.606-10.46l950.851-950.851c6.464-6.591 10.454-15.63 10.454-25.6s-3.99-19.009-10.46-25.606c-6.109-6.751-14.911-10.978-24.701-10.978-0.314 0-0.627 0.004-0.939 0.013zM36.571-64c-20.198 0-36.571 16.374-36.571 36.571-0.008 0.266-0.012 0.579-0.012 0.893 0 9.789 4.227 18.592 10.955 24.681l950.886 950.883c6.041 3.941 13.436 6.286 21.378 6.286 11.883 0 22.541-5.248 29.782-13.553 5.169-5.873 8.299-13.566 8.299-21.99s-3.13-16.117-8.29-21.98l-950.825-950.82c-6.115-6.757-14.917-10.983-24.707-10.983-0.314 0-0.627 0.004-0.939 0.013z" />
<glyph unicode="&#xe909;" glyph-name="dropdown" horiz-adv-x="2048" d="M1024-64l1024 1024h-2048l1024-1024z" />
<glyph unicode="&#xe90a;" glyph-name="dropup" horiz-adv-x="2048" d="M1024 960l-1024-1024h2048l-1024 1024z" />
<glyph unicode="&#xe90b;" glyph-name="favorite" horiz-adv-x="1025" d="M512.789 884.265c6.784-0.008 12.634-3.998 15.34-9.758l122.719-258.865c2.019-5.235 6.353-9.18 11.712-10.622l276.239-39.473c8.447-1.469 14.789-8.745 14.789-17.502 0-0.923-0.070-1.83-0.206-2.715-0.581-3.94-2.428-7.468-5.115-10.157l-197.226-201.171c-3.312-3.288-5.361-7.843-5.361-12.877 0-1.024 0.085-2.029 0.248-3.007l42.981-285.084c0.17-0.922 0.267-1.983 0.267-3.067 0-8.642-6.176-15.842-14.356-17.426-1.7-0.575-3.531-0.897-5.437-0.897s-3.737 0.322-5.441 0.914l-244.839 134.079c-2.272 1.293-4.992 2.055-7.889 2.055s-5.617-0.762-7.969-2.097l-243.692-133.283c-2.21-1.167-4.83-1.852-7.611-1.852-6.827 0-12.69 4.13-15.226 10.027-0.628 1.815-0.966 3.781-0.966 5.827s0.339 4.013 0.963 5.847l46.902 284.667c0.020 0.318 0.031 0.69 0.031 1.065 0 6.033-2.944 11.378-7.474 14.677l-197.278 200.418c-3.161 3.262-5.11 7.714-5.11 12.622s1.949 9.361 5.115 12.627c2.21 3.001 5.329 5.225 8.948 6.277l273.87 39.475c5.609 0.928 10.223 4.499 12.578 9.366l122.719 259.257c2.573 6.295 8.65 10.65 15.744 10.65 0.012 0 0.024 0 0.036 0zM512.789 960c-34.979-1.060-64.817-22.024-78.66-51.909l-112.255-231.703-242.983-39.445c-45.45-6.869-79.888-45.659-79.888-92.491 0-4.805 0.362-9.525 1.062-14.134 3.057-19.38 11.952-36.798 24.828-50.412l177.462-180.22-39.445-254.422c-0.918-4.91-1.443-10.558-1.443-16.329 0-45.085 32.050-82.684 74.61-91.257 5.123-0.93 10.333-1.405 15.654-1.405 15.141 0 29.384 3.843 41.808 10.606l219.251 118.107 219.71-118.336c11.862-6.278 25.929-9.963 40.856-9.963 33.118 0 61.998 18.139 77.25 45.024l0.23 4.385c6.524 12.667 10.349 27.642 10.349 43.511 0 5.529-0.464 10.95-1.356 16.226l-41.733 253.854 177.109 179.871c16.375 17.221 26.447 40.568 26.447 66.268s-10.073 49.047-26.486 66.309c-12.676 12.979-29.3 22.131-47.933 25.516l-245.108 39.528-110.447 229.572c-13.86 30.76-43.75 52.041-78.739 53.247l-0.151 0.004z" />
<glyph unicode="&#xe90c;" glyph-name="favorite-filled" horiz-adv-x="1022" d="M994.552 610.552c-11.972 16.241-30.795 26.833-52.12 27.482l-243.537 39.266-109.939 231.656c-14.984 29.25-44.227 49.309-78.305 51.034-0.979 0.034-1.868 0.048-2.761 0.048-34.152 0-63.432-20.863-75.789-50.539l-112.888-232.199-243.436-39.264c-43.979-8.156-76.842-46.221-76.842-91.961 0-4.959 0.386-9.828 1.131-14.579 3.974-19.050 12.21-36.25 23.685-50.772l176.492-180.357-39.264-255.215c-1.005-5.056-1.58-10.87-1.58-16.817 0-44.888 32.75-82.127 75.66-89.125l0.521-0.070c4.786-0.941 10.288-1.479 15.917-1.479 14.248 0 27.689 3.449 39.536 9.559l219.394 117.565 219.877-117.791c12.438-6.917 27.281-10.989 43.075-10.989 33.659 0 62.998 18.495 78.41 45.876l0.233 4.377-31.411 310.184 176.687 180.613c14.774 17.487 23.755 40.285 23.755 65.18 0 26.362-10.070 50.371-26.572 68.393z" />
<glyph unicode="&#xe90d;" glyph-name="forward" horiz-adv-x="555" d="M554.667 448l-499.2 512-55.467-56.747 443.733-455.253-443.733-455.253 55.467-56.747 499.2 512z" />
<glyph unicode="&#xe90e;" glyph-name="ghost" horiz-adv-x="788" d="M393.846-64c-0.173-0.002-0.378-0.003-0.583-0.003-9.968 0-19.285 2.784-27.217 7.617l-151.4 93.211-133.514-82.314c-7.524-4.328-16.544-6.881-26.16-6.881-20.048 0-37.504 11.096-46.563 27.481l-0.139 0.273c-4.719 7.521-7.725 16.553-8.264 26.242l-0.006 556.256c-0.013 1.178-0.020 2.569-0.020 3.962 0 218.392 175.821 395.718 393.635 398.153 218.276-2.435 394.096-179.762 394.096-398.153 0-1.393-0.007-2.784-0.021-4.174l0.002-555.899c0.001-0.117 0.001-0.256 0.001-0.395 0-29.879-24.11-54.127-53.937-54.349h-0.021c-10.075 0.112-19.446 3.029-27.397 8.006l-133.293 81.791-151.631-92.948c-7.833-4.934-17.357-7.866-27.566-7.877zM214.646 112.837c0.141 0.001 0.309 0.002 0.476 0.002 10.003 0 19.357-2.783 27.328-7.617l151.396-93.209 151.631 92.948c7.847 4.88 17.37 7.773 27.569 7.773s19.722-2.893 27.794-7.903l115.566-70.368v523.422c0.010 0.941 0.015 2.053 0.015 3.166 0 178.783-144.044 323.922-322.407 325.694l-0.168 0.001c-178.363-1.992-322.186-147.046-322.186-325.692 0-1.253 0.007-2.504 0.021-3.754l-0.002 0.19v-523.028l115.791 70.892c7.765 4.697 17.145 7.479 27.174 7.483zM357.218 557.883c0-40.458-32.798-73.255-73.255-73.255s-73.255 32.798-73.255 73.255c0 40.458 32.798 73.255 73.255 73.255s73.255-32.798 73.255-73.255zM576.985 557.883c0-40.458-32.798-73.255-73.255-73.255s-73.255 32.798-73.255 73.255c0 40.458 32.798 73.255 73.255 73.255s73.255-32.798 73.255-73.255z" />
<glyph unicode="&#xe90f;" glyph-name="ghost-filled" horiz-adv-x="788" d="M393.846 960c-220.554-3.938-397.785-181.169-393.846-401.723v-555.323c0-7.877 3.938-19.692 7.877-27.569 0 0 0 0 0 0 15.754-23.631 47.262-35.446 70.892-19.692l133.908 82.708 149.662-94.523c11.815-3.938 23.631-7.877 31.508-7.877s19.692 3.938 27.569 7.877l149.662 94.523 133.908-82.708c7.877-3.938 15.754-7.877 27.569-7.877v0c31.508 0 55.138 23.631 55.138 55.138v555.323c3.938 220.554-173.292 397.785-393.846 401.723zM283.569 483.446c-39.385 0-74.831 31.508-74.831 74.831 0 39.385 31.508 74.831 74.831 74.831 39.385 0 74.831-31.508 74.831-74.831 0-39.385-35.446-74.831-74.831-74.831zM504.123 483.446c-39.385 0-74.831 31.508-74.831 74.831 0 39.385 31.508 74.831 74.831 74.831 39.385 0 74.831-31.508 74.831-74.831 0-39.385-35.446-74.831-74.831-74.831z" />
<glyph unicode="&#xe910;" glyph-name="history" d="M585.143 475.429l-36.571 285.257c-0.861 8.721-7.736 15.596-16.381 16.451l-40.304 0.006c-8.721-0.861-15.596-7.736-16.451-16.381l-32.189-288.259c-2.662-7.274-4.201-15.673-4.201-24.431 0-30.439 18.594-56.535 45.043-67.55l210.77-166.213c2.94-2.194 6.644-3.513 10.657-3.513 5.173 0 9.834 2.192 13.105 5.697l28.535 28.536c2.516 3.062 4.042 7.021 4.042 11.337s-1.526 8.275-4.067 11.368zM512 960c-282.77 0-512-229.23-512-512s229.23-512 512-512c282.77 0 512 229.23 512 512s-229.23 512-512 512zM512 9.143c-242.374 0-438.857 196.483-438.857 438.857s196.483 438.857 438.857 438.857c242.374 0 438.857-196.483 438.857-438.857s-196.483-438.857-438.857-438.857z" />
<glyph unicode="&#xe911;" glyph-name="lock" horiz-adv-x="768" d="M750.592 453.12h-110.592v250.88c0 141.385-114.615 256-256 256s-256-114.615-256-256v-250.88h-110.592c-9.614 0-17.408-7.794-17.408-17.408v-482.304c0-9.614 7.794-17.408 17.408-17.408h733.184c9.614 0 17.408 7.794 17.408 17.408v482.304c0 9.614-7.794 17.408-17.408 17.408zM230.4 700.928c0 84.831 68.769 153.6 153.6 153.6s153.6-68.769 153.6-153.6v-247.808h-307.2v247.808z" />
<glyph unicode="&#xe912;" glyph-name="menu" horiz-adv-x="1792" d="M64 832h1664c38.4 0 64 25.6 64 64s-25.6 64-64 64h-1664c-38.4 0-64-25.6-64-64s25.6-64 64-64zM1728 512h-1664c-38.4 0-64-25.6-64-64s25.6-64 64-64h1664c38.4 0 64 25.6 64 64s-25.6 64-64 64zM1728 64h-1664c-38.4 0-64-25.6-64-64s25.6-64 64-64h1664c38.4 0 64 25.6 64 64s-25.6 64-64 64z" />
<glyph unicode="&#xe913;" glyph-name="refresh" horiz-adv-x="952" d="M950.857 453.851c-1.563 18.964-17.339 33.763-36.571 33.763-20.262 0-36.688-16.426-36.688-36.688 0-1.030 0.042-2.050 0.126-3.058 0.688-8.825 1.085-19.264 1.085-29.797 0-75.423-20.367-146.088-55.902-206.797l1.048 1.937v-2.194c-71-120.457-200.075-200.007-347.731-200.007-73.936 0-143.213 19.946-202.744 54.75-119.244 71.952-199.024 202.791-199.024 352.265 0 75.372 20.286 146.007 55.695 206.741 69.782 119.21 199.241 199.313 347.409 199.313 61.19 0 119.19-13.662 171.115-38.102l-54.022-88.195c-1.506-2.692-2.394-5.908-2.394-9.33 0-7.291 4.025-13.641 9.975-16.95l0.099-0.050c2.571-1.383 5.627-2.196 8.872-2.196 0.095 0 0.19 0.001 0.285 0.002h285.608c0.221-0.009 0.48-0.014 0.74-0.014 10.705 0 19.383 8.678 19.383 19.383 0 3.799-1.093 7.343-2.982 10.334l-140.387 251.166c-3.313 5.871-9.51 9.77-16.618 9.77-3.436 0-6.659-0.911-9.441-2.505l0.093 0.049c-2.858-1.615-5.198-3.837-6.902-6.505l-58.195-100.649c-60.74 30.534-132.367 48.411-208.169 48.411-175.68 0-328.933-96.026-410.132-238.455-41.011-71.257-64.488-153.942-64.488-242.11 0-0.042 0-0.084 0-0.127v0.007c-0.007-0.981-0.011-2.141-0.011-3.303 0-263.237 212.465-476.849 475.263-478.708 169.746 1.24 318.065 91.061 401.289 225.439 6.064 4.906 10.105 8.714 13.159 13.242 39.578 68.642 62.878 150.804 62.878 238.409 0 14.348-0.625 28.551-1.849 42.582z" />
<glyph unicode="&#xe914;" glyph-name="settings" d="M512 9.143c-242.374 0-438.857 196.483-438.857 438.857s196.483 438.857 438.857 438.857c242.374 0 438.857-196.483 438.857-438.857s-196.483-438.857-438.857-438.857zM512 813.714c-201.978 0-365.714-163.736-365.714-365.714s163.736-365.714 365.714-365.714c201.978 0 365.714 163.736 365.714 365.714s-163.736 365.714-365.714 365.714zM457.143 960h109.714c10.099 0 18.286-8.187 18.286-18.286v-73.143c0-10.099-8.187-18.286-18.286-18.286h-109.714c-10.099 0-18.286 8.187-18.286 18.286v73.143c0 10.099 8.187 18.286 18.286 18.286zM457.143 45.714h109.714c10.099 0 18.286-8.187 18.286-18.286v-73.143c0-10.099-8.187-18.286-18.286-18.286h-109.714c-10.099 0-18.286 8.187-18.286 18.286v73.143c0 10.099 8.187 18.286 18.286 18.286zM932.571 521.143h73.143c10.099 0 18.286-8.187 18.286-18.286v-109.714c0-10.099-8.187-18.286-18.286-18.286h-73.143c-10.099 0-18.286 8.187-18.286 18.286v109.714c0 10.099 8.187 18.286 18.286 18.286zM18.286 521.143h73.143c10.099 0 18.286-8.187 18.286-18.286v-109.714c0-10.099-8.187-18.286-18.286-18.286h-73.143c-10.099 0-18.286 8.187-18.286 18.286v109.714c0 10.099 8.187 18.286 18.286 18.286zM758.816 797.256l51.72 51.72c7.141 7.141 18.719 7.141 25.86 0l77.58-77.58c7.141-7.141 7.141-18.719 0-25.86l-51.72-51.72c-7.141-7.141-18.719-7.141-25.86 0l-77.58 77.58c-7.141 7.141-7.141 18.719 0 25.86zM112.233 150.553l51.72 51.72c7.141 7.141 18.719 7.141 25.86 0l77.58-77.58c7.141-7.141 7.141-18.719 0-25.86l-51.72-51.72c-7.141-7.141-18.719-7.141-25.86 0l-77.58 77.58c-7.141 7.141-7.141 18.719 0 25.86zM758.877 124.753l77.58 77.58c7.141 7.141 18.719 7.141 25.86 0l51.72-51.72c7.141-7.141 7.141-18.719 0-25.86l-77.58-77.58c-7.141-7.141-18.719-7.141-25.86 0l-51.72 51.72c-7.141 7.141-7.141 18.719 0 25.86zM112.173 771.336l77.58 77.58c7.141 7.141 18.719 7.141 25.86 0l51.72-51.72c7.141-7.141 7.141-18.719 0-25.86l-77.58-77.58c-7.141-7.141-18.719-7.141-25.86 0l-51.72 51.72c-7.141 7.141-7.141 18.719 0 25.86z" />
<glyph unicode="&#xe915;" glyph-name="share" d="M1024 813.714c0-80.791-65.494-146.286-146.286-146.286s-146.286 65.494-146.286 146.286c0 80.791 65.494 146.286 146.286 146.286s146.286-65.494 146.286-146.286zM292.571 448c0-80.791-65.494-146.286-146.286-146.286s-146.286 65.494-146.286 146.286c0 80.791 65.494 146.286 146.286 146.286s146.286-65.494 146.286-146.286zM1024 82.286c0-80.791-65.494-146.286-146.286-146.286s-146.286 65.494-146.286 146.286c0 80.791 65.494 146.286 146.286 146.286s146.286-65.494 146.286-146.286zM861.257 49.737l-796.891 398.263 796.891 398.629 32.914-65.463-665.966-333.166 665.966-333.166-32.914-65.097z" />
<glyph unicode="&#xe916;" glyph-name="tabs" d="M969.255 960h-694.351c-0.241 0.004-0.525 0.006-0.81 0.006-29.683 0-53.848-23.623-54.72-53.095l-0.002-0.080v-92.948h73.255v72.862h658.511v-658.117h-73.255v-73.255h92.948c29.211 1.288 52.406 25.283 52.406 54.695 0 0.572-0.009 1.141-0.026 1.708l0.002-0.083v693.563c0 0.002 0 0.004 0 0.006 0 29.958-24.063 54.295-53.915 54.738zM747.52 740.628h-694.351c-29.904-0.431-53.98-24.774-53.98-54.739 0-0.556 0.008-1.11 0.025-1.662l-0.002-693.482c0-30.235 24.51-54.745 54.745-54.745s54.745 24.51 54.745 54.745c0 30.235-24.51 54.745-54.745 54.745s-54.745-24.51-54.745-54.745c0-30.235 24.51-54.745 54.745-54.745h693.563c30.235 0 54.745 24.51 54.745 54.745 0 0 0 0 0 0v693.563s0 0 0 2.363c-0.444 29.894-24.781 53.957-54.739 53.957-0.002 0-0.004 0-0.006 0zM730.585 667.372v-658.117h-658.117v658.117z" />
<glyph unicode="&#xe917;" glyph-name="tabs-filled" d="M748.308 740.628h-695.138c-29.559-0.865-53.193-25.034-53.193-54.723 0-0.562 0.008-1.121 0.025-1.679l-0.002-693.481c0-30.235 24.51-54.745 54.745-54.745s54.745 24.51 54.745 54.745c0 30.235-24.51 54.745-54.745 54.745s-54.745-24.51-54.745-54.745c0-30.235 24.51-54.745 54.745-54.745h693.563c30.235 0 54.745 24.51 54.745 54.745 0 0 0 0 0 0v696.714c-0.877 29.549-25.041 53.169-54.722 53.169-0.008 0-0.016 0-0.024 0zM969.255 960h-693.563c-0.469 0.014-1.021 0.023-1.575 0.023-30.235 0-54.745-24.51-54.745-54.745 0-0.008 0-0.016 0-0.024v-91.371h73.255v72.862h658.511v-658.117h-73.255v-73.255h92.948c29.559 0.865 53.193 25.034 53.193 54.723 0 0.562-0.008 1.121-0.025 1.679l0.002 693.481c0 30.235-24.51 54.745-54.745 54.745 0 0 0 0 0 0z" />
<glyph unicode="" glyph-name="tabs-filled" d="M748.308 740.628h-695.138c-29.559-0.865-53.193-25.034-53.193-54.723 0-0.562 0.008-1.121 0.025-1.679l-0.002-693.481c0-30.235 24.51-54.745 54.745-54.745s54.745 24.51 54.745 54.745c0 30.235-24.51 54.745-54.745 54.745s-54.745-24.51-54.745-54.745c0-30.235 24.51-54.745 54.745-54.745h693.563c30.235 0 54.745 24.51 54.745 54.745 0 0 0 0 0 0v696.714c-0.877 29.549-25.041 53.169-54.722 53.169-0.008 0-0.016 0-0.024 0zM969.255 960h-693.563c-0.469 0.014-1.021 0.023-1.575 0.023-30.235 0-54.745-24.51-54.745-54.745 0-0.008 0-0.016 0-0.024v-91.371h73.255v72.862h658.511v-658.117h-73.255v-73.255h92.948c29.559 0.865 53.193 25.034 53.193 54.723 0 0.562-0.008 1.121-0.025 1.679l0.002 693.481c0 30.235-24.51 54.745-54.745 54.745 0 0 0 0 0 0z" />
<glyph unicode="tabs" glyph-name="tabs" d="M969.255 960h-694.351c-0.241 0.004-0.525 0.006-0.81 0.006-29.683 0-53.848-23.623-54.72-53.095l-0.002-0.080v-92.948h73.255v72.862h658.511v-658.117h-73.255v-73.255h92.948c29.211 1.288 52.406 25.283 52.406 54.695 0 0.572-0.009 1.141-0.026 1.708l0.002-0.083v693.563c0 0.002 0 0.004 0 0.006 0 29.958-24.063 54.295-53.915 54.738zM747.52 740.628h-694.351c-29.904-0.431-53.98-24.774-53.98-54.739 0-0.556 0.008-1.11 0.025-1.662l-0.002-693.482c0-30.235 24.51-54.745 54.745-54.745s54.745 24.51 54.745 54.745c0 30.235-24.51 54.745-54.745 54.745s-54.745-24.51-54.745-54.745c0-30.235 24.51-54.745 54.745-54.745h693.563c30.235 0 54.745 24.51 54.745 54.745 0 0 0 0 0 0v693.563s0 0 0 2.363c-0.444 29.894-24.781 53.957-54.739 53.957-0.002 0-0.004 0-0.006 0zM730.585 667.372v-658.117h-658.117v658.117z" />
<glyph unicode="share" glyph-name="share" d="M1024 813.714c0-80.791-65.494-146.286-146.286-146.286s-146.286 65.494-146.286 146.286c0 80.791 65.494 146.286 146.286 146.286s146.286-65.494 146.286-146.286zM292.571 448c0-80.791-65.494-146.286-146.286-146.286s-146.286 65.494-146.286 146.286c0 80.791 65.494 146.286 146.286 146.286s146.286-65.494 146.286-146.286zM1024 82.286c0-80.791-65.494-146.286-146.286-146.286s-146.286 65.494-146.286 146.286c0 80.791 65.494 146.286 146.286 146.286s146.286-65.494 146.286-146.286zM861.257 49.737l-796.891 398.263 796.891 398.629 32.914-65.463-665.966-333.166 665.966-333.166-32.914-65.097z" />
<glyph unicode="settings" glyph-name="settings" d="M512 9.143c-242.374 0-438.857 196.483-438.857 438.857s196.483 438.857 438.857 438.857c242.374 0 438.857-196.483 438.857-438.857s-196.483-438.857-438.857-438.857zM512 813.714c-201.978 0-365.714-163.736-365.714-365.714s163.736-365.714 365.714-365.714c201.978 0 365.714 163.736 365.714 365.714s-163.736 365.714-365.714 365.714zM457.143 960h109.714c10.099 0 18.286-8.187 18.286-18.286v-73.143c0-10.099-8.187-18.286-18.286-18.286h-109.714c-10.099 0-18.286 8.187-18.286 18.286v73.143c0 10.099 8.187 18.286 18.286 18.286zM457.143 45.714h109.714c10.099 0 18.286-8.187 18.286-18.286v-73.143c0-10.099-8.187-18.286-18.286-18.286h-109.714c-10.099 0-18.286 8.187-18.286 18.286v73.143c0 10.099 8.187 18.286 18.286 18.286zM932.571 521.143h73.143c10.099 0 18.286-8.187 18.286-18.286v-109.714c0-10.099-8.187-18.286-18.286-18.286h-73.143c-10.099 0-18.286 8.187-18.286 18.286v109.714c0 10.099 8.187 18.286 18.286 18.286zM18.286 521.143h73.143c10.099 0 18.286-8.187 18.286-18.286v-109.714c0-10.099-8.187-18.286-18.286-18.286h-73.143c-10.099 0-18.286 8.187-18.286 18.286v109.714c0 10.099 8.187 18.286 18.286 18.286zM758.816 797.256l51.72 51.72c7.141 7.141 18.719 7.141 25.86 0l77.58-77.58c7.141-7.141 7.141-18.719 0-25.86l-51.72-51.72c-7.141-7.141-18.719-7.141-25.86 0l-77.58 77.58c-7.141 7.141-7.141 18.719 0 25.86zM112.233 150.553l51.72 51.72c7.141 7.141 18.719 7.141 25.86 0l77.58-77.58c7.141-7.141 7.141-18.719 0-25.86l-51.72-51.72c-7.141-7.141-18.719-7.141-25.86 0l-77.58 77.58c-7.141 7.141-7.141 18.719 0 25.86zM758.877 124.753l77.58 77.58c7.141 7.141 18.719 7.141 25.86 0l51.72-51.72c7.141-7.141 7.141-18.719 0-25.86l-77.58-77.58c-7.141-7.141-18.719-7.141-25.86 0l-51.72 51.72c-7.141 7.141-7.141 18.719 0 25.86zM112.173 771.336l77.58 77.58c7.141 7.141 18.719 7.141 25.86 0l51.72-51.72c7.141-7.141 7.141-18.719 0-25.86l-77.58-77.58c-7.141-7.141-18.719-7.141-25.86 0l-51.72 51.72c-7.141 7.141-7.141 18.719 0 25.86z" />
<glyph unicode="refresh" glyph-name="refresh" horiz-adv-x="952" d="M950.857 453.851c-1.563 18.964-17.339 33.763-36.571 33.763-20.262 0-36.688-16.426-36.688-36.688 0-1.030 0.042-2.050 0.126-3.058 0.688-8.825 1.085-19.264 1.085-29.797 0-75.423-20.367-146.088-55.902-206.797l1.048 1.937v-2.194c-71-120.457-200.075-200.007-347.731-200.007-73.936 0-143.213 19.946-202.744 54.75-119.244 71.952-199.024 202.791-199.024 352.265 0 75.372 20.286 146.007 55.695 206.741 69.782 119.21 199.241 199.313 347.409 199.313 61.19 0 119.19-13.662 171.115-38.102l-54.022-88.195c-1.506-2.692-2.394-5.908-2.394-9.33 0-7.291 4.025-13.641 9.975-16.95l0.099-0.050c2.571-1.383 5.627-2.196 8.872-2.196 0.095 0 0.19 0.001 0.285 0.002h285.608c0.221-0.009 0.48-0.014 0.74-0.014 10.705 0 19.383 8.678 19.383 19.383 0 3.799-1.093 7.343-2.982 10.334l-140.387 251.166c-3.313 5.871-9.51 9.77-16.618 9.77-3.436 0-6.659-0.911-9.441-2.505l0.093 0.049c-2.858-1.615-5.198-3.837-6.902-6.505l-58.195-100.649c-60.74 30.534-132.367 48.411-208.169 48.411-175.68 0-328.933-96.026-410.132-238.455-41.011-71.257-64.488-153.942-64.488-242.11 0-0.042 0-0.084 0-0.127v0.007c-0.007-0.981-0.011-2.141-0.011-3.303 0-263.237 212.465-476.849 475.263-478.708 169.746 1.24 318.065 91.061 401.289 225.439 6.064 4.906 10.105 8.714 13.159 13.242 39.578 68.642 62.878 150.804 62.878 238.409 0 14.348-0.625 28.551-1.849 42.582z" />
<glyph unicode="menu" glyph-name="menu" horiz-adv-x="1792" d="M64 832h1664c38.4 0 64 25.6 64 64s-25.6 64-64 64h-1664c-38.4 0-64-25.6-64-64s25.6-64 64-64zM1728 512h-1664c-38.4 0-64-25.6-64-64s25.6-64 64-64h1664c38.4 0 64 25.6 64 64s-25.6 64-64 64zM1728 64h-1664c-38.4 0-64-25.6-64-64s25.6-64 64-64h1664c38.4 0 64 25.6 64 64s-25.6 64-64 64z" />
<glyph unicode="lock" glyph-name="lock" horiz-adv-x="768" d="M750.592 453.12h-110.592v250.88c0 141.385-114.615 256-256 256s-256-114.615-256-256v-250.88h-110.592c-9.614 0-17.408-7.794-17.408-17.408v-482.304c0-9.614 7.794-17.408 17.408-17.408h733.184c9.614 0 17.408 7.794 17.408 17.408v482.304c0 9.614-7.794 17.408-17.408 17.408zM230.4 700.928c0 84.831 68.769 153.6 153.6 153.6s153.6-68.769 153.6-153.6v-247.808h-307.2v247.808z" />
<glyph unicode="history" glyph-name="history" d="M585.143 475.429l-36.571 285.257c-0.861 8.721-7.736 15.596-16.381 16.451l-40.304 0.006c-8.721-0.861-15.596-7.736-16.451-16.381l-32.189-288.259c-2.662-7.274-4.201-15.673-4.201-24.431 0-30.439 18.594-56.535 45.043-67.55l210.77-166.213c2.94-2.194 6.644-3.513 10.657-3.513 5.173 0 9.834 2.192 13.105 5.697l28.535 28.536c2.516 3.062 4.042 7.021 4.042 11.337s-1.526 8.275-4.067 11.368zM512 960c-282.77 0-512-229.23-512-512s229.23-512 512-512c282.77 0 512 229.23 512 512s-229.23 512-512 512zM512 9.143c-242.374 0-438.857 196.483-438.857 438.857s196.483 438.857 438.857 438.857c242.374 0 438.857-196.483 438.857-438.857s-196.483-438.857-438.857-438.857z" />
<glyph unicode="ghost-tabs-filled" glyph-name="ghost-tabs-filled" d="M393.846 920.615c-220.554-3.938-397.785-181.169-393.846-401.723v-515.938c0-11.815 3.938-19.692 7.877-27.569 11.815-23.631 47.262-35.446 70.892-19.692l133.908 82.708 153.6-94.523c7.877-3.938 19.692-7.877 27.569-7.877s19.692 3.938 27.569 7.877l149.662 94.523 133.908-82.708c7.877-3.938 19.692-7.877 27.569-7.877 31.508 0 55.138 23.631 55.138 55.138v515.938c0 220.554-173.292 397.785-393.846 401.723zM283.569 522.831c-39.385 0-74.831 35.446-74.831 74.831s35.446 74.831 74.831 74.831c39.385 0 74.831-35.446 74.831-74.831 0-43.323-35.446-74.831-74.831-74.831zM504.123 522.831c-39.385 0-74.831 35.446-74.831 74.831s35.446 74.831 74.831 74.831c39.385 0 74.831-35.446 74.831-74.831 0-43.323-35.446-74.831-74.831-74.831zM571.077 97.477l-11.815-7.877 43.323-27.569c7.877-3.938 19.692-7.877 27.569-7.877 3.938 0 7.877 0 7.877 0l-66.954 43.323zM634.092 960c-35.446 0-66.954-3.938-98.462-15.754 47.262-11.815 90.585-35.446 129.969-63.015 165.415-15.754 291.446-153.6 291.446-326.892v-484.431l-114.215 70.892c0 0 0 0-3.938 0v-86.646l106.338-63.015c7.877-3.938 19.692-7.877 27.569-7.877 31.508 0 55.138 23.631 55.138 55.138v519.877c0 220.554-173.292 397.785-393.846 401.723z" />
<glyph unicode="ghost-tabs" glyph-name="ghost-tabs" d="M393.846-64c-7.877 0-19.692 3.938-27.569 7.877l-153.6 94.523-133.908-82.708c-23.631-15.754-59.077-3.938-70.892 19.692v0 0c-3.938 7.877-7.877 15.754-7.877 27.569v515.938c-3.938 220.554 173.292 397.785 393.846 401.723 220.554-3.938 393.846-181.169 393.846-401.723v-515.938c0-31.508-23.631-55.138-55.138-55.138v0 0c-7.877 0-19.692 3.938-27.569 7.877l-133.908 82.708-149.662-94.523c-7.877-3.938-19.692-7.877-27.569-7.877zM212.677 113.231c7.877 0 19.692-3.938 27.569-7.877l153.6-94.523 153.6 94.523c15.754 11.815 39.385 11.815 55.138 0l114.215-70.892v484.431c0 181.169-141.785 326.892-322.954 326.892v0 0c-181.169 0-322.954-149.662-322.954-330.831v0 0-484.431l114.215 70.892c7.877 7.877 19.692 11.815 27.569 11.815zM358.4 597.662c0-41.328-33.503-74.831-74.831-74.831s-74.831 33.503-74.831 74.831c0 41.328 33.503 74.831 74.831 74.831s74.831-33.503 74.831-74.831zM578.954 597.662c0-41.328-33.503-74.831-74.831-74.831s-74.831 33.503-74.831 74.831c0 41.328 33.503 74.831 74.831 74.831s74.831-33.503 74.831-74.831zM571.077 97.477l-11.815-7.877 43.323-27.569c7.877-3.938 19.692-7.877 27.569-7.877 3.938 0 7.877 0 7.877 0l-66.954 43.323zM634.092 960c-35.446 0-66.954-3.938-98.462-15.754 47.262-11.815 90.585-35.446 129.969-63.015 165.415-15.754 291.446-153.6 291.446-326.892v-484.431l-114.215 70.892c0 0 0 0-3.938 0v-86.646l106.338-63.015c7.877-3.938 19.692-7.877 27.569-7.877 31.508 0 55.138 23.631 55.138 55.138v519.877c0 220.554-173.292 397.785-393.846 401.723z" />
<glyph unicode="ghost-filled" glyph-name="ghost-filled" horiz-adv-x="788" d="M393.846 960c-220.554-3.938-397.785-181.169-393.846-401.723v-555.323c0-7.877 3.938-19.692 7.877-27.569 0 0 0 0 0 0 15.754-23.631 47.262-35.446 70.892-19.692l133.908 82.708 149.662-94.523c11.815-3.938 23.631-7.877 31.508-7.877s19.692 3.938 27.569 7.877l149.662 94.523 133.908-82.708c7.877-3.938 15.754-7.877 27.569-7.877v0c31.508 0 55.138 23.631 55.138 55.138v555.323c3.938 220.554-173.292 397.785-393.846 401.723zM283.569 483.446c-39.385 0-74.831 31.508-74.831 74.831 0 39.385 31.508 74.831 74.831 74.831 39.385 0 74.831-31.508 74.831-74.831 0-39.385-35.446-74.831-74.831-74.831zM504.123 483.446c-39.385 0-74.831 31.508-74.831 74.831 0 39.385 31.508 74.831 74.831 74.831 39.385 0 74.831-31.508 74.831-74.831 0-39.385-35.446-74.831-74.831-74.831z" />
<glyph unicode="ghost" glyph-name="ghost" horiz-adv-x="788" d="M393.846-64c-0.173-0.002-0.378-0.003-0.583-0.003-9.968 0-19.285 2.784-27.217 7.617l-151.4 93.211-133.514-82.314c-7.524-4.328-16.544-6.881-26.16-6.881-20.048 0-37.504 11.096-46.563 27.481l-0.139 0.273c-4.719 7.521-7.725 16.553-8.264 26.242l-0.006 556.256c-0.013 1.178-0.020 2.569-0.020 3.962 0 218.392 175.821 395.718 393.635 398.153 218.276-2.435 394.096-179.762 394.096-398.153 0-1.393-0.007-2.784-0.021-4.174l0.002-555.899c0.001-0.117 0.001-0.256 0.001-0.395 0-29.879-24.11-54.127-53.937-54.349h-0.021c-10.075 0.112-19.446 3.029-27.397 8.006l-133.293 81.791-151.631-92.948c-7.833-4.934-17.357-7.866-27.566-7.877zM214.646 112.837c0.141 0.001 0.309 0.002 0.476 0.002 10.003 0 19.357-2.783 27.328-7.617l151.396-93.209 151.631 92.948c7.847 4.88 17.37 7.773 27.569 7.773s19.722-2.893 27.794-7.903l115.566-70.368v523.422c0.010 0.941 0.015 2.053 0.015 3.166 0 178.783-144.044 323.922-322.407 325.694l-0.168 0.001c-178.363-1.992-322.186-147.046-322.186-325.692 0-1.253 0.007-2.504 0.021-3.754l-0.002 0.19v-523.028l115.791 70.892c7.765 4.697 17.145 7.479 27.174 7.483zM357.218 557.883c0-40.458-32.798-73.255-73.255-73.255s-73.255 32.798-73.255 73.255c0 40.458 32.798 73.255 73.255 73.255s73.255-32.798 73.255-73.255zM576.985 557.883c0-40.458-32.798-73.255-73.255-73.255s-73.255 32.798-73.255 73.255c0 40.458 32.798 73.255 73.255 73.255s73.255-32.798 73.255-73.255z" />
<glyph unicode="forward" glyph-name="forward" horiz-adv-x="555" d="M554.667 448l-499.2 512-55.467-56.747 443.733-455.253-443.733-455.253 55.467-56.747 499.2 512z" />
<glyph unicode="favorite-filled" glyph-name="favorite-filled" horiz-adv-x="1022" d="M994.552 610.552c-11.972 16.241-30.795 26.833-52.12 27.482l-243.537 39.266-109.939 231.656c-14.984 29.25-44.227 49.309-78.305 51.034-0.979 0.034-1.868 0.048-2.761 0.048-34.152 0-63.432-20.863-75.789-50.539l-112.888-232.199-243.436-39.264c-43.979-8.156-76.842-46.221-76.842-91.961 0-4.959 0.386-9.828 1.131-14.579 3.974-19.050 12.21-36.25 23.685-50.772l176.492-180.357-39.264-255.215c-1.005-5.056-1.58-10.87-1.58-16.817 0-44.888 32.75-82.127 75.66-89.125l0.521-0.070c4.786-0.941 10.288-1.479 15.917-1.479 14.248 0 27.689 3.449 39.536 9.559l219.394 117.565 219.877-117.791c12.438-6.917 27.281-10.989 43.075-10.989 33.659 0 62.998 18.495 78.41 45.876l0.233 4.377-31.411 310.184 176.687 180.613c14.774 17.487 23.755 40.285 23.755 65.18 0 26.362-10.070 50.371-26.572 68.393z" />
<glyph unicode="favorite" glyph-name="favorite" horiz-adv-x="1025" d="M512.789 884.265c6.784-0.008 12.634-3.998 15.34-9.758l122.719-258.865c2.019-5.235 6.353-9.18 11.712-10.622l276.239-39.473c8.447-1.469 14.789-8.745 14.789-17.502 0-0.923-0.070-1.83-0.206-2.715-0.581-3.94-2.428-7.468-5.115-10.157l-197.226-201.171c-3.312-3.288-5.361-7.843-5.361-12.877 0-1.024 0.085-2.029 0.248-3.007l42.981-285.084c0.17-0.922 0.267-1.983 0.267-3.067 0-8.642-6.176-15.842-14.356-17.426-1.7-0.575-3.531-0.897-5.437-0.897s-3.737 0.322-5.441 0.914l-244.839 134.079c-2.272 1.293-4.992 2.055-7.889 2.055s-5.617-0.762-7.969-2.097l-243.692-133.283c-2.21-1.167-4.83-1.852-7.611-1.852-6.827 0-12.69 4.13-15.226 10.027-0.628 1.815-0.966 3.781-0.966 5.827s0.339 4.013 0.963 5.847l46.902 284.667c0.020 0.318 0.031 0.69 0.031 1.065 0 6.033-2.944 11.378-7.474 14.677l-197.278 200.418c-3.161 3.262-5.11 7.714-5.11 12.622s1.949 9.361 5.115 12.627c2.21 3.001 5.329 5.225 8.948 6.277l273.87 39.475c5.609 0.928 10.223 4.499 12.578 9.366l122.719 259.257c2.573 6.295 8.65 10.65 15.744 10.65 0.012 0 0.024 0 0.036 0zM512.789 960c-34.979-1.060-64.817-22.024-78.66-51.909l-112.255-231.703-242.983-39.445c-45.45-6.869-79.888-45.659-79.888-92.491 0-4.805 0.362-9.525 1.062-14.134 3.057-19.38 11.952-36.798 24.828-50.412l177.462-180.22-39.445-254.422c-0.918-4.91-1.443-10.558-1.443-16.329 0-45.085 32.050-82.684 74.61-91.257 5.123-0.93 10.333-1.405 15.654-1.405 15.141 0 29.384 3.843 41.808 10.606l219.251 118.107 219.71-118.336c11.862-6.278 25.929-9.963 40.856-9.963 33.118 0 61.998 18.139 77.25 45.024l0.23 4.385c6.524 12.667 10.349 27.642 10.349 43.511 0 5.529-0.464 10.95-1.356 16.226l-41.733 253.854 177.109 179.871c16.375 17.221 26.447 40.568 26.447 66.268s-10.073 49.047-26.486 66.309c-12.676 12.979-29.3 22.131-47.933 25.516l-245.108 39.528-110.447 229.572c-13.86 30.76-43.75 52.041-78.739 53.247l-0.151 0.004z" />
<glyph unicode="dropup" glyph-name="dropup" horiz-adv-x="2048" d="M1024 960l-1024-1024h2048l-1024 1024z" />
<glyph unicode="dropdown" glyph-name="dropdown" horiz-adv-x="2048" d="M1024-64l1024 1024h-2048l1024-1024z" />
<glyph unicode="cross" glyph-name="cross" d="M987.429-64c-0.266-0.008-0.579-0.012-0.893-0.012-9.789 0-18.592 4.227-24.681 10.955l-950.883 950.886c-6.464 6.591-10.454 15.63-10.454 25.6s3.99 19.009 10.46 25.606c6.585 6.459 15.624 10.448 25.594 10.448s19.009-3.99 25.606-10.46l950.851-950.851c6.464-6.591 10.454-15.63 10.454-25.6s-3.99-19.009-10.46-25.606c-6.109-6.751-14.911-10.978-24.701-10.978-0.314 0-0.627 0.004-0.939 0.013zM36.571-64c-20.198 0-36.571 16.374-36.571 36.571-0.008 0.266-0.012 0.579-0.012 0.893 0 9.789 4.227 18.592 10.955 24.681l950.886 950.883c6.041 3.941 13.436 6.286 21.378 6.286 11.883 0 22.541-5.248 29.782-13.553 5.169-5.873 8.299-13.566 8.299-21.99s-3.13-16.117-8.29-21.98l-950.825-950.82c-6.115-6.757-14.917-10.983-24.707-10.983-0.314 0-0.627 0.004-0.939 0.013z" />
<glyph unicode="checkbox" glyph-name="checkbox" d="M969.143-64h-914.286c-29.972 0.793-54.064 24.885-54.856 54.783l-0.002 914.36c0.793 29.972 24.885 54.064 54.783 54.856l914.36 0.002c29.972-0.793 54.064-24.885 54.856-54.783l0.002-914.36c-0.793-29.972-24.885-54.064-54.783-54.856zM73.143 9.143h877.714v877.714h-877.714v-877.714z" />
<glyph unicode="check" glyph-name="check" horiz-adv-x="1309" d="M1302.761 823.905l-122.016 122.016c-6.386 8.735-16.596 14.345-28.117 14.345-7.793 0-14.986-2.567-20.781-6.901l-4.602-7.444-638.24-657.012-281.577 281.577c-13.256 11.996-30.92 19.337-50.299 19.337-9.938 0-19.426-1.931-28.108-5.438l0.504 0.18-122.016-131.402c-4.492-8.138-7.135-17.839-7.135-28.158s2.643-20.020 7.289-28.464l431.596-440.831c6.386-8.735 16.596-14.345 28.117-14.345 7.793 0 14.986 2.567 20.781 6.901l7.418 7.444 797.8 816.572c8.825 7.78 14.362 19.109 14.362 31.732 0 7.281-1.843 14.133-5.087 20.113z" />
<glyph unicode="bookmark-filled" glyph-name="bookmark-filled" horiz-adv-x="788" d="M733.342 960h-681.354c-29-1.281-52.025-25.102-52.025-54.301 0-0.71 0.014-1.417 0.041-2.12l-0.003-912.834c-0.001-0.124-0.002-0.27-0.002-0.417 0-29.464 23.445-53.452 52.696-54.326l341.151 196.921 338.314-196.923c0.352-0.008 0.767-0.013 1.183-0.013 30.017 0 54.351 24.334 54.351 54.351 0 0.143-0.001 0.286-0.002 0.429v912.913s0 0 0 2.363c-0.223 29.847-24.471 53.957-54.349 53.957-0.001 0-0.001 0-0.002 0z" />
<glyph unicode="bookmark" glyph-name="bookmark" horiz-adv-x="788" d="M733.342 960h-681.354c-29-1.281-52.025-25.102-52.025-54.301 0-0.71 0.014-1.417 0.041-2.12l-0.003-912.834c-0.001-0.124-0.002-0.27-0.002-0.417 0-29.464 23.445-53.452 52.696-54.326l341.151 196.921 338.314-196.923c0.352-0.008 0.767-0.013 1.183-0.013 30.017 0 54.351 24.334 54.351 54.351 0 0.143-0.001 0.286-0.002 0.429v912.913s0 0 0 2.363c-0.223 29.847-24.471 53.957-54.349 53.957-0.001 0-0.001 0-0.002 0zM716.012 886.745v-849.92l-320.985 196.923-323.742-196.923v849.92z" />
<glyph unicode="back" glyph-name="back" horiz-adv-x="555" d="M499.2-64l55.467 56.747-443.733 455.253 443.733 455.253-55.467 56.747-499.2-512 499.2-512z" />
<glyph unicode="add" glyph-name="add" d="M512-64c-20.198 0-36.571 16.374-36.571 36.571v950.857c0 20.198 16.374 36.571 36.571 36.571s36.571-16.374 36.571-36.571v-950.857c0-20.198-16.374-36.571-36.571-36.571zM987.429 411.429h-950.857c-20.198 0-36.571 16.374-36.571 36.571s16.374 36.571 36.571 36.571h950.857c20.198 0 36.571-16.374 36.571-36.571s-16.374-36.571-36.571-36.571z" />
</font>
</defs>
</svg>
